<svg version="1.1" id="Layer_1" xmlns="http://www.w3.org/2000/svg" xmlns:xlink="http://www.w3.org/1999/xlink" x="0px" y="0px"
	 width="100%" viewBox="0 0 167 132" enable-background="new 0 0 167 132" xml:space="preserve">
<path fill="#000000" opacity="1.000000" stroke="none" 
	d="
M34.000000,1.000000 
	C62.687561,1.000000 91.375122,1.000000 120.537872,1.430025 
	C121.330673,2.590294 121.919083,3.318443 121.924751,4.051099 
	C121.995552,13.204355 122.158203,22.363447 121.889519,31.509060 
	C121.801331,34.511028 119.944901,36.129070 116.295013,36.096718 
	C94.325882,35.901993 72.354156,35.993603 50.383305,36.003925 
	C43.840248,36.007000 42.007843,37.869167 42.003101,44.490826 
	C41.992970,58.638718 41.998573,72.786621 42.000648,86.934517 
	C42.001587,93.351105 44.675827,95.992096 51.257374,95.995445 
	C74.393349,96.007187 97.529907,95.913788 120.664810,96.071869 
	C125.359833,96.103943 127.100754,94.523643 127.073532,89.745651 
	C126.920868,62.948738 126.941330,36.150185 127.087555,9.353199 
	C127.102760,6.565404 128.333344,3.784241 129.000000,1.000001 
	C140.687561,1.000000 152.375122,1.000000 164.667465,1.405293 
	C165.514832,3.386060 165.967697,4.961328 165.969254,6.537041 
	C166.008362,46.178108 166.002457,85.819221 165.997406,125.460327 
	C165.996628,131.539597 165.537659,131.996689 159.443878,131.997513 
	C122.134598,132.002502 84.823524,131.788391 47.516949,132.105896 
	C32.937504,132.229965 20.915808,127.640099 11.776982,116.227509 
	C6.541512,109.689430 2.919191,102.458916 2.968309,93.726601 
	C3.072297,75.239098 2.940589,56.750343 3.025604,38.262657 
	C3.066781,29.308380 6.968473,21.824167 12.455596,15.017479 
	C18.117218,7.994328 25.877375,4.225475 34.000000,1.000000 
z"/>
<path fill="#FFFFFF" opacity="1.000000" stroke="none" 
	d="
M128.555832,1.000001 
	C128.333344,3.784241 127.102760,6.565404 127.087555,9.353199 
	C126.941330,36.150185 126.920868,62.948738 127.073532,89.745651 
	C127.100754,94.523643 125.359833,96.103943 120.664810,96.071869 
	C97.529907,95.913788 74.393349,96.007187 51.257374,95.995445 
	C44.675827,95.992096 42.001587,93.351105 42.000648,86.934517 
	C41.998573,72.786621 41.992970,58.638718 42.003101,44.490826 
	C42.007843,37.869167 43.840248,36.007000 50.383305,36.003925 
	C72.354156,35.993603 94.325882,35.901993 116.295013,36.096718 
	C119.944901,36.129070 121.801331,34.511028 121.889519,31.509060 
	C122.158203,22.363447 121.995552,13.204355 121.924751,4.051099 
	C121.919083,3.318443 121.330673,2.590294 121.006531,1.430025 
	C123.370552,1.000000 125.741112,1.000000 128.555832,1.000001 
M70.500153,41.000000 
	C64.675667,41.000000 58.851109,40.980858 53.026730,41.005459 
	C47.350010,41.029438 46.024761,42.281593 46.010075,47.787647 
	C45.977673,59.935741 45.977219,72.084045 46.010319,84.232132 
	C46.025246,89.710464 47.369766,90.989182 53.046497,90.993561 
	C74.014580,91.009743 94.983231,90.919304 115.950325,91.064224 
	C120.449234,91.095322 122.131248,89.471863 122.064850,84.961021 
	C121.878723,72.316338 121.878342,59.665337 122.064896,47.020668 
	C122.131683,42.494251 120.416237,40.883251 115.931709,40.935261 
	C101.122902,41.107010 86.310867,41.000000 70.500153,41.000000 
z"/>
<path fill="#FFFFFF" opacity="1.000000" stroke="none" 
	d="
M33.531342,1.000000 
	C25.877375,4.225475 18.117218,7.994328 12.455596,15.017479 
	C6.968473,21.824167 3.066781,29.308380 3.025604,38.262657 
	C2.940589,56.750343 3.072297,75.239098 2.968309,93.726601 
	C2.919191,102.458916 6.541512,109.689430 11.776982,116.227509 
	C20.915808,127.640099 32.937504,132.229965 47.516949,132.105896 
	C84.823524,131.788391 122.134598,132.002502 159.443878,131.997513 
	C165.537659,131.996689 165.996628,131.539597 165.997406,125.460327 
	C166.002457,85.819221 166.008362,46.178108 165.969254,6.537041 
	C165.967697,4.961328 165.514832,3.386060 165.136124,1.405293 
	C165.999069,1.000000 166.998123,1.000000 167.997894,1.000000 
	C167.998596,44.957813 167.998596,88.915627 167.998596,132.936722 
	C112.427757,132.936722 56.855427,132.936722 1.141548,132.936722 
	C1.141548,89.000320 1.141548,45.000225 1.141548,1.000000 
	C11.749360,1.000000 22.406021,1.000000 33.531342,1.000000 
z"/>
<path fill="#000000" opacity="1.000000" stroke="none" 
	d="
M71.000107,41.000000 
	C86.310867,41.000000 101.122902,41.107010 115.931709,40.935261 
	C120.416237,40.883251 122.131683,42.494251 122.064896,47.020668 
	C121.878342,59.665337 121.878723,72.316338 122.064850,84.961021 
	C122.131248,89.471863 120.449234,91.095322 115.950325,91.064224 
	C94.983231,90.919304 74.014580,91.009743 53.046497,90.993561 
	C47.369766,90.989182 46.025246,89.710464 46.010319,84.232132 
	C45.977219,72.084045 45.977673,59.935741 46.010075,47.787647 
	C46.024761,42.281593 47.350010,41.029438 53.026730,41.005459 
	C58.851109,40.980858 64.675667,41.000000 71.000107,41.000000 
z"/>
</svg>